<svg width="31" height="23" viewBox="0 0 31 23" fill="none" xmlns="http://www.w3.org/2000/svg">
<path d="M30 11.5L30.0961 11.9907C30.3308 11.9447 30.5 11.7391 30.5 11.5C30.5 11.2609 30.3308 11.0553 30.0961 11.0093L30 11.5ZM14.5826 21.7248C14.4306 21.9553 14.4942 22.2654 14.7248 22.4174C14.9553 22.5694 15.2654 22.5058 15.4174 22.2752L14.5826 21.7248ZM15.4174 0.724757C15.2654 0.494221 14.9553 0.430566 14.7248 0.582579C14.4942 0.734591 14.4306 1.04471 14.5826 1.27524L15.4174 0.724757ZM15.4174 22.2752C19.7095 15.766 26.157 12.7625 30.0961 11.9907L29.9039 11.0093C25.7444 11.8243 19.0448 14.9575 14.5826 21.7248L15.4174 22.2752ZM14.5826 1.27524C19.0448 8.04252 25.7444 11.1757 29.9039 11.9907L30.0961 11.0093C26.157 10.2375 19.7095 7.23396 15.4174 0.724757L14.5826 1.27524Z" fill="black"/>
<line x1="29.5" y1="11.5" x2="0.5" y2="11.5" stroke="black" stroke-linecap="round"/>
</svg>
