<svg width="1436" height="120" viewBox="0 0 1436 120" fill="none" xmlns="http://www.w3.org/2000/svg">
<g id="LEG LOGO">
<g id="Group">
<path id="Vector" d="M61.8681 114.709C58.9603 114.709 30.9039 113.064 0.647107 115.414C0.0969828 115.493 -0.217374 114.787 0.175572 114.396C4.18362 109.146 10.4708 104.445 11.0209 93.5537C11.0209 92.8485 16.7579 20.1368 6.38412 9.24572L5.0481 7.83537C4.26221 7.05183 3.6335 6.50336 3.16196 5.95489C2.45466 5.32806 3.00478 4.07441 4.02644 4.15277C7.48437 4.46618 8.6632 4.62289 12.2783 4.62289C17.3866 4.62289 29.8037 3.99606 33.1044 3.83936C33.4974 3.83936 33.8117 4.30947 33.4974 4.62289C33.3402 4.77959 26.8959 7.4436 24.5382 15.1222C21.1589 26.0133 21.7876 47.4037 23.2808 89.4793C23.438 93.0052 23.7523 102.878 23.7523 104.445C23.7523 104.915 30.0395 104.445 42.6137 104.445C56.8384 104.445 60.1391 104.993 66.662 95.7476C67.7623 94.2589 67.6837 94.2589 68.0766 93.7887C68.3124 93.5537 68.7053 93.7104 68.7053 94.0238C69.4912 103.896 73.735 110.321 78.2146 114.552C78.6076 114.944 78.2932 115.649 77.7431 115.571C74.8353 115.258 68.7053 114.709 61.8681 114.709Z" fill="black"/>
<path id="Vector_2" d="M146.037 119.41C146.43 120.899 144.151 119.175 143.444 118.548C140.929 116.511 138.728 116.041 136.292 116.041C135.585 116.041 134.72 116.119 133.856 116.119C132.834 116.198 131.577 116.198 130.162 116.198C129.691 116.198 128.197 116.276 126.311 116.511C123.089 116.746 118.295 117.216 115.545 117.216C115.545 117.216 114.68 117.216 114.366 117.216C88.1955 115.179 74.0495 99.1167 71.2989 68.0889C67.1336 23.2709 100.141 7.60026 108.55 6.26825C122.067 4.15272 131.498 7.67861 133.227 7.67861C136.449 7.67861 139.278 7.13014 142.579 6.1899C143.522 5.95484 144.465 5.79814 145.251 5.79814C145.723 5.79814 146.116 5.87649 146.43 5.87649C146.902 5.95484 147.137 6.50331 146.98 6.89508C145.723 10.5777 145.801 13.4767 145.801 16.4542V18.3346C145.801 20.5285 146.116 22.3306 146.352 24.1328C146.587 25.4648 146.744 26.7184 146.823 28.2071C146.823 28.5205 146.43 28.7556 146.194 28.5205C143.129 25.3864 130.398 15.2005 117.902 15.4356C116.881 15.4356 115.859 15.5139 114.759 15.6706C97.862 18.1779 87.8812 27.5803 85.2877 49.7542C85.1306 51.0079 85.4449 52.2615 86.1522 53.2801C86.8595 54.2987 87.9598 54.9255 89.06 55.0039C93.5396 55.3173 109.257 56.2576 122.225 56.2576C134.406 56.2576 138.886 51.5564 141.007 47.7171C141.243 47.3253 141.793 47.5604 141.715 47.9521C141.636 48.7356 141.558 49.4408 141.479 50.2244C141.007 54.142 140.536 58.6081 141.872 69.0291C141.951 69.9693 142.029 70.7529 142.108 71.3797C142.108 71.7715 141.715 71.9282 141.479 71.6931C140.772 70.9096 139.75 69.891 139.75 69.891C137.314 67.3837 133.699 64.3279 125.054 64.3279H121.832C116.173 64.3279 108.314 64.0929 101.163 63.9362C96.4474 63.7794 92.0464 63.7011 88.7457 63.6227C87.724 63.6227 86.7809 64.0929 86.0736 64.9547C85.3663 65.8166 85.052 67.0703 85.1306 68.2456C87.8026 104.758 105.014 108.206 115.073 108.911C116.723 108.989 118.295 109.068 119.788 109.068C137.471 109.068 141.4 103.269 143.758 98.4899C144.072 97.8631 144.308 97.3146 144.623 96.8445C144.937 96.296 145.33 95.9042 145.723 95.6692C146.037 95.4341 146.43 95.7475 146.352 96.1393C144.387 104.053 143.994 112.437 146.037 119.41Z" fill="black"/>
<path id="Vector_3" d="M200.028 119.097C162.698 119.097 154.446 75.0623 154.446 58.6865C154.446 33.6919 167.178 11.6746 183.917 6.58166C202.228 1.01859 210.873 5.71978 216.374 5.71978C222.74 5.71978 226.748 2.82071 228.792 0.940238C229.263 0.470119 229.656 0.156706 229.97 0C230.049 0.235059 230.678 1.80212 230.442 6.73837C229.97 17.7078 233.9 23.8194 236.493 27.8154C237.358 29.1474 233.9 27.1885 233.193 26.2483C228.713 20.6069 219.518 13.2417 199.399 13.2417C175.665 13.2417 167.964 44.0345 167.964 60.9587C167.964 75.4541 177.394 108.206 199.871 108.206C222.819 108.206 226.591 87.8339 226.591 76.8644C226.591 68.3239 224.469 59.1566 219.125 51.3997C216.06 46.9335 212.602 44.4262 209.144 44.1128C208.673 44.0345 208.201 44.0345 207.73 44.0345C198.456 44.0345 189.811 52.4966 188.082 62.9959C187.925 64.0929 187.768 65.1115 187.611 66.0517C187.532 66.9136 186.275 66.8352 186.275 65.9733C186.118 62.0557 186.668 57.8246 187.611 53.8286C189.811 44.5046 195.863 39.4116 202.779 37.7662C205.215 37.2177 207.494 36.9043 209.773 36.9043C230.599 36.9043 238.458 60.7237 238.458 72.9468C238.379 113.847 212.917 119.097 200.028 119.097ZM200.185 82.0357C198.456 80.1553 196.57 74.4355 198.456 70.9096C199.635 68.7157 201.521 67.3837 203.643 67.3837C204.9 67.3837 206.236 67.9322 207.415 68.8724C210.087 71.0663 211.895 78.0397 208.751 82.1924C204.586 87.4421 200.185 82.0357 200.185 82.0357Z" fill="black"/>
<path id="Vector_4" d="M274.059 116.746C270.758 115.806 265.886 115.179 261.485 115.022H259.677C256.219 115.022 249.696 115.336 245.767 116.59C248.439 113.69 252.054 106.874 252.29 96.6095C252.447 90.4196 251.975 69.8127 251.661 51.6348C251.425 40.822 251.268 31.1062 251.189 26.2484C251.111 18.6481 247.181 9.95091 245.61 7.05184C247.26 7.36525 249.146 7.44361 251.661 7.44361C257.319 7.44361 264.392 6.81678 266.907 6.34666C267.143 6.26831 267.379 6.26831 267.615 6.26831L267.3 6.73843C264.392 11.518 262.428 14.6521 262.585 24.5246C263.842 103.975 268.558 109.694 273.195 115.258C273.745 115.884 274.059 116.354 274.216 116.746H274.059Z" fill="black"/>
<path id="Vector_5" d="M302.665 116.433C302.115 116.511 302.037 116.198 302.351 115.493C309.11 98.9601 310.603 74.2788 310.682 67.6188C310.839 56.2576 311.467 26.8752 309.896 17.3945C309.817 17.0027 309.581 16.7676 309.188 16.7676C306.909 16.846 298.736 17.2378 294.807 18.0213C288.598 19.1966 284.197 24.9947 282.389 27.7371C282.154 28.1288 281.525 27.9721 281.525 27.502C281.289 21.6255 279.56 14.0253 278.146 9.55916C277.988 9.08904 277.831 8.54057 277.674 8.07045C277.517 7.67868 277.831 7.20856 278.303 7.28692C279.56 7.36527 281.682 7.60033 282.861 7.67868C287.891 8.22715 298.893 8.69727 312.489 8.69727L344.161 8.61892C352.648 8.61892 356.185 7.83539 358.778 6.66009C359.092 6.50338 359.328 6.8168 359.171 7.13021C355.006 13.9469 353.67 20.6069 353.041 24.7597C352.963 25.0731 352.648 25.0731 352.491 24.838C348.64 18.8832 346.833 17.5512 340.231 16.6893C338.266 16.4542 336.695 16.2975 333.944 16.2975C329.307 16.2975 325.142 16.6893 325.142 16.6893L323.413 16.846C323.02 16.9243 322.706 17.2378 322.706 17.6295L322.627 19.7451C322.627 19.9801 320.034 53.0451 323.177 83.4462C325.221 102.878 328.914 111.967 330.014 115.179C330.172 115.728 329.7 116.198 329.229 116.119C327.735 115.806 320.505 115.571 316.183 115.571C309.11 115.414 304.394 116.198 302.665 116.433Z" fill="black"/>
<path id="Vector_6" d="M396.501 116.276C391.078 115.336 385.184 114.866 379.133 114.866C375.046 114.866 371.745 115.101 369.623 115.257C369.78 114.866 370.016 114.396 370.331 113.925C372.374 110.4 372.767 105.777 373.081 102.016C373.16 100.684 373.317 99.3517 373.474 98.3331C374.81 90.8112 374.26 35.4156 373.317 22.8791C372.767 15.7489 368.052 8.93222 366.087 6.34657C366.087 6.26821 366.008 5.9548 366.087 5.7981C373.867 6.58163 379.054 6.81669 382.905 6.81669C387.227 6.81669 389.664 6.58163 392.178 6.18986C392.1 6.42492 391.943 6.65998 391.864 6.89504C391.393 7.75692 391.078 8.22704 390.685 8.69716C389.978 9.55905 389.271 10.4993 388.328 12.7715C386.599 17.0809 385.105 23.8193 386.599 59.0782C387.62 84.1512 388.406 91.0463 388.878 95.199L389.113 97.4713C389.349 100.37 390.921 106.56 394.065 111.575C395.086 113.22 395.951 114.944 396.501 116.276Z" fill="black"/>
<path id="Vector_7" d="M427.465 114.239C427.779 114.552 427.544 115.101 427.072 115.101C422.514 114.866 407.11 115.336 406.56 115.336C406.167 115.336 405.932 114.866 406.167 114.552C408.211 111.888 410.726 98.6466 410.804 92.3C411.04 70.2828 410.804 27.3453 410.568 22.2523C410.254 14.7304 411.511 14.1036 406.796 8.5405C406.324 7.99203 405.774 7.36521 405.303 6.73838C409.232 6.58168 416.463 6.42497 421.964 6.42497C424.007 6.42497 425.815 6.42497 427.072 6.50332C426.601 7.13015 426.286 7.83533 426.129 8.85392C425.972 10.7344 426.836 12.3015 427.779 13.6335C433.595 21.9389 450.256 45.6015 453.478 47.9521C453.478 47.9521 474.776 19.1182 476.505 16.2975C478.784 12.6932 479.334 9.63745 478.234 6.66003C478.862 6.66003 479.648 6.66003 480.513 6.66003C486.171 6.66003 494.659 6.66003 499.374 6.11156C499.61 6.11156 499.767 6.0332 500.003 6.0332C498.352 8.30544 496.545 11.988 496.702 17.3161C496.781 18.6481 496.938 23.5059 497.174 30.2443C497.802 47.7954 498.903 77.883 499.295 90.7329C499.688 104.993 504.011 110.87 506.84 114.082C507.076 114.396 506.84 114.787 506.526 114.787C503.775 114.709 495.916 114.317 490.965 114.317C488.686 114.317 483.499 114.317 480.748 114.474C480.277 114.474 479.884 114.004 480.12 113.534C484.442 104.758 485.071 96.1393 484.992 91.5948C484.678 70.8312 483.578 27.8154 483.578 25.6215V23.4276C482.792 24.2111 451.906 67.0703 451.356 67.0703C450.727 67.0703 426.679 36.2775 424.164 32.9083C423.693 32.2815 422.042 30.3227 421.099 29.1474C420.785 28.834 420.235 28.9907 420.235 29.4608C420.078 31.1846 420.392 72.7117 421.335 92.4567C421.492 95.9826 425.265 111.888 427.465 114.239Z" fill="black"/>
<path id="Vector_8" d="M736.949 119.018C732.077 116.746 726.968 115.649 721.388 115.649C719.817 115.649 718.481 115.728 717.066 115.963C714.944 116.276 712.822 116.433 710.622 116.433C696.083 116.433 682.644 110.086 673.685 99.0383C664.883 88.1472 660.875 73.0251 661.975 55.3173C664.175 21.1553 683.98 10.4209 700.248 7.44351C701.505 7.20845 702.763 7.1301 704.02 7.1301C707.478 7.1301 711.015 7.75692 713.844 8.22704C716.202 8.6188 718.009 8.77551 719.738 8.77551C722.882 8.77551 725.711 8.22704 728.933 7.36515C729.876 7.13009 730.819 6.97339 731.605 6.97339C732.863 6.97339 733.413 7.2868 733.57 7.44351C731.919 11.7529 731.291 14.4953 731.291 18.8831C731.291 21.2337 731.841 23.1925 732.391 25.1513C732.705 26.3266 733.02 27.4236 733.177 28.5989C733.255 29.069 732.705 29.304 732.391 28.9123C729.326 25.308 719.267 14.4169 706.614 14.4169C705.592 14.4169 704.57 14.4953 703.549 14.652C679.815 18.1779 676.986 42.8591 676.042 51.478L675.885 52.81C675.728 54.0636 676.042 55.3173 676.75 56.2575C677.457 57.2761 678.479 57.8246 679.658 57.9029C685.395 58.2947 700.012 57.5112 712.272 57.5112C725.082 57.5112 730.583 52.2615 733.177 48.5789C733.413 48.2655 733.963 48.4222 733.963 48.814C733.963 51.8697 733.648 55.8657 733.648 60.5669C733.648 67.6187 735.613 71.6147 735.692 72.3199C735.692 72.6333 735.377 72.8684 735.142 72.7117C732.705 71.458 723.51 67.0702 715.258 67.0702H712.429C707.242 67.0702 683.901 67.7754 680.365 67.7754C679.343 67.7754 678.4 68.2455 677.693 69.1074C676.986 69.9693 676.671 71.223 676.75 72.3983C680.286 108.206 706.692 107.109 714.866 107.109C717.066 107.109 719.188 106.952 720.603 106.56C729.326 104.601 732.627 102.094 734.749 98.2548C735.063 97.628 735.456 97.0011 735.77 96.3743C736.399 95.2774 737.028 94.8073 737.342 94.6505C737.342 94.8073 737.342 95.199 737.421 95.8258C737.421 97.3146 737.263 99.3517 737.028 101.467C736.556 105.463 736.085 110.008 736.792 114.474C736.949 116.903 736.949 118.235 736.949 119.018Z" fill="black"/>
<path id="Vector_9" d="M636.041 115.649C632.897 114.787 629.675 114.161 624.802 114.161C620.166 114.161 611.599 114.787 607.356 115.571C607.67 114.944 608.141 114.161 608.849 113.22C614.743 105.228 615.45 91.9867 615.686 82.3492C615.922 72.2417 615.686 41.4489 615.607 28.2856L615.529 23.0359C615.529 21.7039 615.214 19.9802 615.057 18.8049C614.9 18.0213 614.271 17.5512 613.485 17.4729C610.578 17.3945 603.269 17.3162 595.882 18.3347C587.787 19.4317 585.508 24.2896 583.543 27.5804C583.307 27.9722 582.757 27.8155 582.757 27.4237C582.443 21.7823 581.264 11.9881 579.535 8.93237C578.828 7.67872 578.199 6.58177 577.963 5.95495C577.806 5.64154 578.12 5.32812 578.435 5.32812C579.692 5.40648 586.608 8.14884 589.909 8.77566C594.231 9.55919 610.578 9.95096 624.881 9.95096C636.276 9.95096 645.864 9.7159 650.58 9.40249C657.731 8.85402 661.896 7.2086 664.411 6.26836C664.804 6.11166 665.433 5.8766 666.062 5.64154C666.455 5.48483 666.848 5.8766 666.769 6.26836C666.297 8.22719 665.904 9.08908 664.333 15.3573C663.783 17.4729 662.289 24.9948 661.582 28.0505C661.503 28.4423 660.953 28.5207 660.718 28.2072C659.224 25.935 655.138 19.9802 650.422 18.2564C647.515 17.2378 643.742 16.6893 637.219 16.6893C635.097 16.6893 633.211 16.7677 631.797 16.7677H630.146C625.431 16.7677 625.038 19.3533 624.881 23.5844C624.802 26.0134 625.195 36.1993 625.903 52.7318C626.217 60.4887 626.531 68.4807 626.767 74.8273C627.317 89.9495 629.046 102.016 633.526 110.791C634.783 112.907 635.569 114.474 636.041 115.649Z" fill="black"/>
<path id="Vector_10" d="M569.24 6.26821C569.24 5.9548 569.083 5.9548 568.926 5.9548C566.175 5.9548 559.338 7.05175 546.763 7.05175C537.961 7.05175 529.238 5.7981 526.959 5.7981C526.173 5.7981 526.645 6.42492 527.588 8.4621C527.745 8.93222 528.059 9.40234 528.374 10.0292C528.688 11.1261 529.317 12.5365 529.945 15.1221C530.888 18.1779 531.203 20.2151 531.203 22.0955C531.203 24.4461 530.731 26.7184 529.945 30.401L529.159 33.9269C527.43 41.8405 519.886 74.6705 515.563 95.1207C514.935 97.863 513.677 103.191 509.669 114.239C509.512 114.866 509.512 114.709 509.826 114.709C512.341 114.552 516.664 114.239 520.986 114.239C523.187 114.239 526.566 114.396 529.317 114.552C527.902 112.358 527.43 109.929 527.43 108.362C527.43 107.109 527.745 104.993 528.216 101.702C529.317 93.9454 534.896 67.0702 535.368 65.2681C535.682 63.8578 535.839 62.9175 536.625 62.9175L557.216 63.0742C558.316 63.0742 558.63 63.5443 558.788 65.7382C560.202 86.4235 560.674 92.1432 560.831 94.1804C561.145 100.37 562.088 109.616 560.045 113.769C559.888 114.082 559.888 114.239 560.202 114.239C562.403 114.082 566.096 113.925 571.519 113.925C576.784 113.925 579.142 114.082 582.836 114.396C583.15 114.396 583.15 114.239 582.993 113.925C578.356 107.109 576.784 103.74 575.37 96.6094L566.411 37.296C563.739 19.98 563.346 15.8273 563.346 16.2974C563.346 12.7715 564.289 11.2045 566.568 9.6374L568.611 8.22704C569.397 7.67857 569.083 7.36516 569.24 6.26821ZM556.273 55.0822H553.522H537.883C537.568 55.0822 537.411 55.0822 537.411 54.6121C537.411 53.6719 540.791 38.0796 541.419 34.8671C543.62 24.0544 545.27 18.8047 545.742 17.5511C546.37 15.3572 548.492 15.0438 551.479 15.0438C554.151 15.0438 554.387 15.2005 554.544 15.984C554.701 17.2377 557.294 44.7396 557.923 52.4182C558.237 55.5523 558.237 55.0822 556.273 55.0822Z" fill="black"/>
</g>
<path id="Vector_11" d="M826.934 116.511C829.056 111.732 833.3 95.2774 833.85 88.9308C834.557 80.9388 834.085 40.5086 833.614 29.9309C833.299 21.3904 830.785 13.5551 826.305 6.81675C826.226 6.66004 825.991 6.34663 826.069 6.11157C829.37 7.05181 836.757 7.67863 842.573 7.67863C844.695 7.67863 847.603 7.60028 849.646 7.20852C847.288 12.6932 845.56 26.6401 845.952 33.6919C846.11 36.4342 846.188 42.7808 846.267 50.2244C846.424 62.8392 846.66 78.5882 847.367 85.7184C848.546 97.4713 853.261 111.81 855.462 115.728C855.462 115.806 855.54 115.806 855.54 115.884C855.383 115.884 855.226 115.806 855.069 115.728C854.283 115.414 852.79 115.101 848.232 115.101C841.237 115.022 830.549 115.963 826.934 116.511Z" fill="black"/>
<path id="Vector_12" d="M925.092 114.866C926.506 111.418 927.607 107.344 926.821 104.837C925.721 101.546 917.783 80.7038 907.802 63.3094C908.431 64.2496 885.562 25.3081 882.261 19.9017L880.217 15.8274L880.768 42.2324L882.182 76.0809C882.654 86.3452 887.291 107.501 889.177 111.653L890.434 114.317C883.911 113.69 882.339 113.534 878.881 113.534C877.153 113.534 870.787 114.004 866.7 114.631C868.744 107.501 871.808 94.1021 871.808 87.2854V85.2482C871.808 23.9761 870.865 11.9097 868.508 8.30547C867.879 7.52194 867.407 6.73841 866.936 6.11158C866.936 6.11158 866.622 5.95488 866.779 5.95488H878.803C889.255 5.95488 895.935 5.95488 898.922 5.79817C897.979 7.20853 896.878 10.0292 896.878 11.5179C896.878 12.1448 899.865 22.7224 911.653 44.5046L912.753 46.5418C923.206 65.9734 937.037 86.3452 937.195 86.5019L941.753 93.0052C941.91 93.1619 942.067 93.3186 942.067 93.0052V84.4647C942.067 82.5842 942.067 34.7105 941.438 25.3865C941.124 17.0027 939.238 10.4994 935.859 6.425C935.701 6.11158 935.859 5.95488 936.016 5.95488C939.002 6.26829 943.167 6.73841 947.097 6.5817C950.397 6.425 953.462 6.11158 954.563 5.79817C955.349 5.64147 954.72 6.5817 954.406 7.05182L952.519 10.0292C951.262 12.0664 949.69 16.2191 949.533 25.8566C949.376 34.3971 950.005 88.304 950.633 97.628C951.419 107.109 951.734 109.303 954.406 114.082C955.034 115.179 953.148 114.709 952.205 114.709C941.91 114.082 934.13 114.552 930.357 114.709L925.092 114.866C924.935 115.022 924.935 114.866 925.092 114.866Z" fill="black"/>
<path id="Vector_13" d="M989.142 115.336C992.207 104.915 993.543 91.6731 993.543 89.4792C993.543 74.2787 995.272 24.5245 995.272 23.976C995.272 23.976 995.272 15.7489 993.229 15.7489C990.792 15.7489 983.484 16.0623 978.768 17.1593C971.617 18.8047 966.901 23.8193 964.072 27.1101C963.836 25.5431 963.522 23.741 963.286 22.2522C962.186 15.1221 961.321 9.55904 960.064 6.18985C965.329 6.97339 980.89 8.93221 998.415 8.93221C999.987 8.93221 1001.87 8.93221 1003.92 9.01057C1006.51 9.01057 1009.5 9.08892 1012.4 9.08892C1021.83 9.08892 1027.41 8.69715 1030.48 7.75692C1033.78 6.73833 1039.12 5.01456 1042.74 3.36914C1041.72 7.60021 1039.99 22.4873 1039.91 27.1101L1039.6 26.64C1036.61 22.4873 1032.13 16.1407 1020.18 16.1407C1015 16.1407 1008.87 16.1407 1007.37 16.1407C1007.37 16.1407 1006.12 19.4315 1006.12 22.7224C1006.12 24.9946 1006.59 38.0796 1007.14 53.2801C1007.69 69.1074 1008.4 87.1286 1008.4 90.1844C1008.4 92.6134 1010.36 108.127 1012.8 115.257C1012.09 115.257 1011.3 115.179 1010.75 115.179C1010.2 115.179 1009.81 115.101 1009.5 115.101C1008.87 115.179 991.657 115.336 989.142 115.336Z" fill="black"/>
<path id="Vector_14" d="M1381.14 117.686C1384.21 107.03 1385.62 93.4753 1385.62 91.2031C1385.62 75.6108 1386.72 20.6069 1386.72 20.0584L1386.8 16.6109L1383.82 16.7676C1383.5 16.7676 1375.57 17.1594 1370.69 18.2563C1364.56 19.6667 1360 23.0359 1356.7 26.3267C1356.55 26.4834 1356.23 26.405 1356.15 26.17C1355.92 24.838 1355.37 22.0173 1355.37 22.0173C1354.27 16.3758 1353.09 10.1076 1351.44 6.03323C1351.28 5.71982 1351.05 5.17135 1350.89 4.77959C1350.81 4.54453 1351.05 4.30947 1351.28 4.38782C1353.95 5.32806 1363.86 8.61889 1375.88 8.77559C1376.98 8.77559 1378.47 8.77559 1380.2 8.77559C1392.07 8.77559 1415.57 8.46218 1420.99 8.14877C1425.39 7.91371 1430.18 6.34665 1435.61 3.36923C1435.76 3.29088 1436 3.44758 1436 3.60429C1435.06 7.91371 1432.94 13.1634 1433.41 24.6029C1433.41 24.9163 1432.94 25.073 1432.7 24.838C1429.16 20.842 1423.58 16.7676 1413.21 16.2975C1407.87 16.0624 1400.24 16.4542 1398.98 16.6109C1398.98 16.6109 1401.03 86.7369 1401.03 91.9082C1401.03 94.3372 1403.07 110.243 1405.51 117.608C1404.72 117.608 1404.01 117.53 1403.39 117.53C1402.84 117.53 1402.44 117.451 1402.13 117.451C1401.34 117.608 1383.74 117.686 1381.14 117.686Z" fill="black"/>
<path id="Vector_15" d="M1080.07 117.373C1072.05 117.373 1060.66 115.022 1051.7 103.896C1037.4 86.1885 1037.4 70.6746 1037.4 59.3917C1037.4 44.8181 1044 29.8526 1049.58 21.3905C1056.18 11.4396 1066.32 5.71985 1078.97 4.77961H1079.05C1089.03 4.77961 1094.69 7.60033 1098.54 7.60033C1100.42 7.60033 1102.07 7.36527 1103.49 6.9735C1106.71 6.03326 1109.23 4.38785 1110.96 3.21255C1111.43 2.89914 1112.29 3.36926 1112.13 3.99608C1111.74 5.56315 1111.27 7.28691 1110.96 8.61892C1110.33 10.8912 1109.78 13.085 1109.46 14.7305C1109.07 16.7676 1108.99 19.51 1108.83 22.0957C1108.75 23.271 1108.75 24.838 1108.6 26.17C1108.6 26.5618 1107.58 26.6401 1106.95 26.0917C1105.61 24.9164 1103.72 22.9575 1101.21 19.8234C1097.04 14.6521 1090.52 11.518 1083.61 11.518C1080.78 11.518 1077.87 12.0665 1075.12 13.085C1055.24 20.4502 1052.96 51.7131 1052.8 53.0451L1052.56 56.571L1055.63 56.4143C1055.79 56.4143 1071.42 55.7091 1081.96 55.7091C1090.6 55.7091 1100.66 50.3811 1106.71 47.1687C1107.18 46.9336 1107.65 46.6985 1108.05 46.4635C1108.05 46.4635 1108.05 48.2656 1108.05 48.6574C1108.05 53.5153 1108.2 61.1939 1108.75 65.8167C1108.83 66.2085 1109.23 67.7755 1107.03 65.9734C1104.59 64.0146 1100.42 62.5259 1096.49 62.0557C1094.77 61.8207 1091.23 61.7423 1085.81 61.7423C1079.76 61.7423 1072.68 61.899 1067.57 61.9774C1064.82 62.0557 1062.7 62.0557 1061.68 62.0557C1057.2 62.0557 1054.45 62.7609 1054.29 62.8393L1052.41 63.3877L1052.17 65.5816C1052.09 66.0518 1051.07 78.1965 1055.39 88.8525C1059.56 99.1168 1064.9 108.284 1084.86 108.284C1098.46 108.284 1108.6 97.3146 1113.86 91.4382C1113.78 93.2403 1113.63 95.5909 1113.63 98.725C1113.63 104.837 1114.49 110.4 1115.04 114.082C1115.12 114.474 1115.2 114.944 1115.2 115.336C1114.1 114.866 1112.53 114.004 1110.17 112.672C1109.07 112.045 1107.73 111.732 1106.08 111.732C1102 111.732 1096.57 113.769 1092.64 115.179C1091.15 115.728 1089.97 116.198 1089.19 116.354C1088.01 116.668 1084.55 117.373 1080.07 117.373Z" fill="black"/>
<path id="Vector_16" d="M1217.36 63.4659L1215.64 63.9361C1215.64 63.9361 1213.75 78.353 1218.62 89.4008C1222.71 98.6465 1227.66 107.892 1247.31 107.892C1260.35 107.892 1270.57 97.5496 1275.91 91.7514C1276.23 91.438 1276.78 91.6731 1276.78 92.0648C1276.7 93.7886 1276.62 96.9227 1276.62 99.43C1276.62 105.071 1277.17 110.008 1277.64 113.612C1277.72 114.082 1277.8 114.631 1277.8 115.101C1277.88 115.571 1277.41 115.963 1276.94 115.884C1275.36 115.492 1273.48 114.787 1271.59 113.769C1270.41 113.063 1269 112.75 1267.19 112.75C1263.26 112.75 1258.39 114.395 1254.85 115.571C1253.67 115.963 1252.65 116.354 1251.94 116.511C1250.69 116.824 1247.23 117.53 1242.83 117.53C1234.89 117.53 1223.65 115.257 1214.77 104.21C1200.31 86.1884 1200.31 70.0476 1200.31 59.3916C1200.31 45.053 1206.44 30.7143 1211.63 22.8007C1219.88 10.3425 1229.78 6.58157 1239.61 5.64134C1251.79 4.46604 1259.1 7.99193 1261.77 8.46205C1265.38 9.08887 1269.86 7.60017 1271.59 6.26816C1273.79 4.46604 1272.3 9.16723 1271.91 10.7343C1271.28 12.9282 1270.73 15.1221 1270.41 16.7675C1269.94 19.1181 1270.02 22.0955 1270.1 24.9162C1270.1 25.4647 1270.1 26.0915 1270.1 26.7183C1270.1 27.3452 1269.71 28.4421 1268.45 27.1884C1267.19 25.8564 1265.23 24.0543 1262.87 21.0769C1258.7 15.8272 1252.57 12.8498 1246.05 12.8498C1243.3 12.8498 1240.55 13.3983 1237.8 14.4169C1218.15 21.7037 1216.11 50.616 1216.03 51.8697L1215.79 55.0038L1218.54 55.1605C1218.7 55.1605 1233.87 56.1791 1244.4 56.1791C1252.97 56.1791 1263.1 51.0078 1269.16 47.952C1269.63 47.717 1270.02 47.4819 1270.41 47.3252C1270.18 48.1087 1270.02 48.8139 1270.02 49.5191C1270.02 49.6758 1270.18 61.9772 1271.12 67.697C1270.57 67.462 1269.94 67.0702 1269.23 66.7568C1266.48 65.3464 1262.71 63.3876 1258.86 62.8391C1257.13 62.6041 1253.67 62.5257 1248.25 62.5257C1242.28 62.5257 1235.28 62.6824 1230.25 62.7608" fill="black"/>
<path id="Vector_17" d="M1192.85 117.06C1176.97 118.313 1173.98 105.307 1171.78 98.3332C1171.55 97.4713 1171.23 96.6878 1171 95.9043C1170.29 93.8671 1169.5 91.4382 1168.8 88.8525C1167.07 83.0544 1165.1 76.5511 1162.27 71.3014C1158.89 64.9548 1151.98 64.0146 1148.21 64.0146C1146.63 64.0146 1145.61 64.1713 1145.61 64.1713L1143.18 64.563L1143.26 67.3837C1143.26 67.3837 1143.65 80.3904 1143.96 87.8339C1144.28 94.8857 1145.22 105.228 1149.07 115.101C1143.18 115.022 1130.68 114.944 1125.42 114.944C1127.22 110.635 1130.29 97.628 1130.29 88.6174C1130.29 86.1101 1130.21 77.5696 1130.21 67.4621C1130.13 52.4966 1130.05 34.0837 1130.05 26.0133C1130.05 15.4356 1128.4 11.753 1127.14 8.77561C1126.99 8.30549 1126.75 7.91372 1126.59 7.52196C1127.38 7.60031 1128.24 7.67866 1129.11 7.67866C1131 7.60031 1153.86 7.4436 1159.21 7.4436C1169.58 7.4436 1187.03 10.6561 1187.03 32.3599C1187.03 54.7689 1174.46 57.5896 1165.34 59.7051C1164.4 59.9402 1163.53 60.0969 1162.75 60.332L1156.77 61.8207C1156.77 61.8207 1174.14 59.6268 1182.16 85.4833C1183.02 88.304 1183.96 91.2814 1185.14 94.5723C1189.94 107.657 1199.13 109.616 1204.16 109.616C1206.36 109.616 1208.17 109.303 1209.51 108.989C1207.7 111.105 1202.59 116.276 1192.85 117.06ZM1146.56 12.1448C1142.31 12.1448 1142.16 15.514 1142.16 16.2192C1142.16 16.6893 1142.47 55.7091 1142.47 55.7091C1142.47 55.7091 1147.74 55.5524 1152.92 54.8472C1169.27 52.6534 1172.65 41.6839 1173.04 33.8486C1173.59 24.6029 1171.7 15.9057 1165.57 13.6335C1158.66 11.0478 1146.56 12.1448 1146.56 12.1448Z" fill="black"/>
<path id="Vector_18" d="M1322.12 117.216C1313.48 117.216 1303.97 110.164 1294.22 110.086C1291 110.086 1288.17 111.026 1285.74 112.28C1285.27 112.515 1284.72 112.045 1284.95 111.496C1287.78 105.698 1290.85 95.1206 1291.63 90.8896C1291.71 90.3411 1292.5 90.106 1292.89 90.5761C1298.08 96.2959 1309.24 106.56 1319.29 108.206C1321.1 108.519 1322.83 108.676 1324.32 108.676C1334.38 108.676 1337.92 102.486 1339.18 97.3145C1341.38 88.3823 1333.68 79.8418 1309.86 64.8763C1285.58 49.5975 1286.99 34.7887 1290.77 22.0172C1295.4 6.26819 1309.55 0.705115 1333.83 6.65995C1339.57 7.83525 1342.95 5.79807 1344.99 5.2496C1346.72 4.70112 1346.72 5.79807 1346.64 6.26819C1345.7 11.988 1344.21 21.6254 1343.5 28.2071C1343.42 28.5988 1342.95 28.6772 1342.79 28.2854C1339.57 21.547 1332.26 10.7343 1315.84 10.7343C1307.27 10.7343 1301.3 15.2004 1299.41 22.9574C1297.29 31.733 1300.98 41.2137 1307.66 45.9149C1311.59 48.6572 1316.78 51.713 1322.28 54.9255C1331.55 60.3318 1341.54 66.9135 1346.02 71.2229C1356.94 81.8006 1350.49 102.251 1346.25 106.874C1336.74 117.06 1328.8 117.216 1322.12 117.216Z" fill="black"/>
</g>
</svg>
