<svg width="326" height="113" fill="none" xmlns="http://www.w3.org/2000/svg"><g clip-path="url(#a)" fill="#000"><path d="M27.238 48.2c-1.297 0-13.64-.708-26.956.283-.235.016-.366-.264-.221-.441 1.778-2.196 4.542-4.171 4.767-8.773.014-.297 2.529-30.855-2.024-35.424l-.585-.54c-.342-.316-.605-.556-.837-.777-.318-.303-.062-.82.388-.78 1.508.132 2.04.197 3.646.197 2.238 0 7.728-.25 9.164-.335.19-.01.304.197.187.339-.056.066-2.896 1.172-3.933 4.394-1.474 4.576-1.215 13.573-.54 31.237.055 1.481.197 5.623.194 6.29 0 .211 2.767 0 8.302 0 6.276 0 7.715.215 10.596-3.647.474-.632.454-.638.63-.81.1-.098.273-.036.284.103.346 4.164 2.224 6.847 4.196 8.621.183.165.045.451-.2.428a73.641 73.641 0 0 0-7.058-.365ZM64.265 50.171c.187.613-.817-.105-1.142-.358-1.124-.866-2.079-1.04-3.165-1.04-.329 0-.682.016-1.08.035-.463.023-.996.05-1.615.05-.208 0-.851.05-1.688.115-1.405.112-3.526.283-4.757.283 0 0-.38-.003-.526-.016-11.527-.87-17.733-7.621-18.968-20.634C29.542 9.79 44.08 3.186 47.784 2.63c5.943-.892 10.095.576 10.86.576 1.404 0 2.663-.247 4.116-.615.432-.109.83-.165 1.187-.165.207 0 .373.02.505.046.204.043.318.25.249.441-.56 1.55-.537 2.752-.509 4.016l.014.79c.003.909.128 1.683.249 2.426.09.56.177 1.097.221 1.709.01.142-.17.22-.273.115-1.332-1.33-6.953-5.61-12.468-5.5-.456.01-.916.032-1.37.095-7.451 1.066-11.82 5.004-12.983 14.306-.069.543.066 1.07.377 1.485a1.76 1.76 0 0 0 1.298.708c1.978.122 8.877.517 14.581.517 5.355 0 7.32-1.96 8.268-3.575.09-.152.332-.076.315.095-.028.323-.066.632-.104.951-.194 1.653-.415 3.53.166 7.917.052.386.087.715.107.994.01.149-.176.231-.287.122l-.775-.76c-1.062-1.067-2.667-2.347-6.472-2.347l-1.425.01c-2.48 0-5.944-.092-9.092-.175-2.079-.056-4.027-.105-5.47-.125-.449 0-.871.204-1.165.556a1.965 1.965 0 0 0-.426 1.39c1.166 15.34 8.76 16.801 13.184 17.091.74.05 1.429.072 2.072.072 7.801 0 9.517-2.422 10.545-4.457.128-.256.245-.497.37-.698.145-.233.315-.395.477-.493.135-.083.315.032.277.184-.861 3.377-1.034 6.913-.138 9.84ZM88.052 50.036c-16.447 0-20.048-18.497-20.048-25.37 0-10.485 5.618-19.748 12.96-21.894 8.05-2.354 11.855-.379 14.276-.379 2.789 0 4.563-1.218 5.473-2.011.211-.184.381-.333.505-.382.021.102.312.767.218 2.838-.211 4.618 1.529 7.176 2.678 8.868.387.57-1.138-.273-1.446-.642-1.965-2.357-6.033-5.458-14.89-5.458-10.454 0-13.851 12.924-13.851 20.057 0 6.084 4.165 19.854 14.052 19.854 10.119 0 11.762-8.56 11.762-13.168 0-3.591-.94-7.43-3.286-10.692-1.35-1.87-2.861-2.933-4.376-3.071a7.036 7.036 0 0 0-.64-.03c-4.09 0-7.885 3.546-8.65 7.957-.079.457-.148.882-.2 1.284-.045.352-.591.329-.605-.024-.062-1.655.162-3.416.574-5.089.965-3.907 3.626-6.057 6.684-6.765a13.724 13.724 0 0 1 3.061-.368c9.161 0 12.627 10.014 12.627 15.149-.003 17.121-11.212 19.336-16.878 19.336Zm.062-15.58c-.744-.784-1.574-3.21-.75-4.69.518-.932 1.362-1.489 2.269-1.489.56 0 1.13.214 1.65.622 1.18.925 1.979 3.849.585 5.587-1.803 2.248-3.754-.03-3.754-.03ZM120.632 49.056c-1.46-.389-3.581-.672-5.542-.735l-.789-.013c-1.526 0-4.383.142-6.116.652 1.173-1.218 2.774-4.082 2.878-8.384.062-2.598-.124-11.252-.287-18.89-.097-4.525-.187-8.617-.204-10.658-.028-3.183-1.761-6.85-2.47-8.059.723.125 1.563.175 2.653.175 2.491 0 5.587-.273 6.711-.47.115-.02.222-.03.326-.034l-.128.204c-1.287 2.005-2.135 3.328-2.066 7.46.543 33.376 2.643 35.789 4.674 38.126.232.267.374.474.457.626h-.097ZM133.235 48.914c-.229.033-.267-.099-.142-.392 2.968-6.952 3.625-17.315 3.66-20.12.055-4.776.346-17.117-.332-21.117-.028-.155-.145-.277-.308-.267-.993.043-4.594.208-6.345.52-2.746.494-4.673 2.927-5.452 4.079-.11.165-.373.095-.38-.099-.097-2.455-.851-5.655-1.502-7.551a83.71 83.71 0 0 1-.214-.636c-.059-.174.083-.352.277-.345.539.02 1.498.125 2.013.178 2.211.22 7.075.414 13.059.414l13.935-.016c3.747 0 5.307-.33 6.452-.83.128-.056.252.08.18.198-1.816 2.86-2.415 5.668-2.706 7.397-.02.118-.179.145-.249.046-1.705-2.489-2.473-3.052-5.386-3.424-.865-.112-1.567-.168-2.774-.168-2.052 0-3.865.162-3.865.162l-.761.069a.35.35 0 0 0-.325.335l-.017.89c-.004.101-1.149 14.003.239 26.749.885 8.157 2.532 11.986 2.995 13.332.077.217-.128.428-.363.379-.661-.139-3.836-.214-5.746-.214-3.117-.004-5.193.326-5.943.43ZM174.547 48.858c-2.401-.392-4.972-.59-7.653-.59-1.805 0-3.255.093-4.189.175.08-.168.176-.355.301-.56.91-1.49 1.076-3.44 1.211-5.003.048-.576.09-1.113.173-1.557.595-3.173.349-26.42-.087-31.69-.249-3.003-2.307-5.864-3.186-6.953a1.052 1.052 0 0 1-.003-.237c3.418.329 5.715.414 7.41.414 1.885 0 2.975-.105 4.089-.276-.042.089-.09.188-.152.3-.198.371-.364.566-.519.753-.298.362-.633.77-1.045 1.725-.772 1.798-1.412 4.638-.754 19.455.467 10.547.809 13.444 1.013 15.179l.108.971c.114 1.231.788 3.822 2.172 5.912.467.708.862 1.429 1.111 1.982ZM188.177 47.992c.138.142.027.369-.177.359-2.02-.099-8.783.105-9.039.112-.183.003-.291-.194-.18-.333.913-1.132 1.996-6.669 2.031-9.358.121-9.25.007-27.28-.09-29.416-.149-3.174.418-3.408-1.644-5.758-.197-.227-.435-.5-.66-.764 1.729-.056 4.909-.125 7.33-.125.896 0 1.685.007 2.252.03a1.883 1.883 0 0 0-.401.978c-.08.79.325 1.458.733 2.008 2.564 3.48 9.908 13.42 11.302 14.415 0 0 9.379-12.121 10.15-13.31.99-1.527 1.235-2.814.751-4.052.291 0 .623-.003.996-.003 2.477-.006 6.22-.013 8.303-.22.09-.01.177-.017.26-.024-.737.949-1.519 2.496-1.443 4.747.017.567.1 2.614.208 5.442.287 7.37.778 20.03.92 25.426.159 6.001 2.082 8.477 3.321 9.82.107.118.017.3-.149.293-1.214-.046-4.681-.181-6.836-.181-1.02 0-3.272.013-4.501.069-.221.01-.366-.207-.269-.398 1.888-3.7 2.183-7.299 2.151-9.22-.138-8.734-.615-26.79-.64-27.722l.004-.935c-.35.333-13.928 18.323-14.191 18.336-.259.013-10.873-12.93-11.962-14.366-.208-.276-.924-1.096-1.36-1.593-.128-.145-.377-.072-.394.119-.07.73.076 18.187.484 26.453.083 1.504 1.754 8.177 2.74 9.171ZM324.383 49.99c-2.151-.948-4.39-1.409-6.849-1.409-.678 0-1.298.05-1.913.129-.931.121-1.886.184-2.834.184h-.003c-6.407 0-12.333-2.666-16.26-7.314-3.864-4.573-5.645-10.93-5.147-18.376.951-14.365 9.683-18.862 16.84-20.106.54-.093 1.107-.129 1.671-.129 1.522 0 3.086.264 4.338.47 1.049.175 1.824.248 2.578.248 1.383 0 2.618-.244 4.051-.606.425-.109.82-.164 1.169-.164.543 0 .803.138.848.184-.723 1.814-1.021 2.972-1.011 4.793.004.97.243 1.817.471 2.64.135.48.266.948.346 1.432.031.18-.215.286-.339.145-1.336-1.528-5.767-6.08-11.354-6.08-.453 0-.906.03-1.367.095-10.451 1.495-11.686 11.848-12.09 15.465l-.066.57a1.987 1.987 0 0 0 .37 1.461c.311.412.775.669 1.277.698 2.522.152 8.967-.151 14.349-.151 5.65 0 8.057-2.219 9.203-3.76.107-.144.342-.072.342.103.003 1.27-.135 2.95-.135 4.924 0 2.963.872 4.645.893 4.945.01.128-.135.217-.256.154-1.076-.543-5.134-2.353-8.756-2.353l-1.256.01c-2.266 0-12.544.306-14.108.286-.449 0-.868.207-1.158.563a1.885 1.885 0 0 0-.405 1.38c1.563 15.046 13.166 14.569 16.792 14.569.975 0 1.892-.08 2.515-.217 3.826-.84 5.307-1.867 6.22-3.487.149-.266.297-.53.46-.79.28-.447.536-.648.678-.727-.017.079.014.244.017.49.018.63-.083 1.469-.186 2.354-.198 1.676-.419 3.572-.108 5.474.18 1.028.194 1.6.173 1.903ZM279.97 48.588c-1.384-.352-2.799-.625-4.937-.625-2.027 0-5.798.273-7.68.582.149-.257.363-.576.668-.97 2.577-3.345 2.909-8.909 3.02-12.987.114-4.234-.004-17.197-.052-22.73l-.017-2.206c0-.557-.125-1.297-.222-1.791a.706.706 0 0 0-.681-.553c-1.273-.036-4.504-.066-7.736.349-3.566.457-4.563 2.492-5.421 3.888-.093.154-.339.095-.349-.08-.142-2.386-.661-6.484-1.411-7.765-.315-.536-.575-.978-.699-1.264-.056-.132.055-.267.204-.253.557.049 3.587 1.175 5.051 1.438 1.885.336 9.084.487 15.38.487 5.027 0 9.251-.092 11.306-.243 3.144-.234 4.988-.915 6.088-1.324.166-.062.457-.177.723-.28.177-.069.36.086.312.264-.222.813-.395 1.182-1.087 3.815-.235.892-.892 4.062-1.203 5.336-.042.165-.27.204-.364.06-.643-.965-2.466-3.467-4.542-4.184-1.273-.442-2.944-.656-5.819-.656-.934 0-1.774.024-2.376.04l-.713.016c-2.079 0-2.231 1.09-2.307 2.868-.045 1.017.138 5.31.446 12.252.145 3.252.29 6.6.394 9.29.239 6.353 1.01 11.432 2.972 15.1.502.96.837 1.642 1.052 2.126ZM250.578 2.643c0-.128-.069-.128-.135-.128-1.228 0-4.227.454-9.752.454-3.888 0-7.707-.52-8.728-.52-.342 0-.135.26.273 1.103.07.194.205.388.343.648.135.455.408 1.037.681 2.143.409 1.298.547 2.144.547 2.92 0 .975-.204 1.946-.547 3.506l-.342 1.491c-.751 3.309-4.093 17.131-6.002 25.697-.273 1.168-.82 3.374-2.591 8.045-.069.26-.069.194.069.194 1.09-.066 2.999-.194 4.909-.194.955 0 2.456.066 3.684.128-.612-.908-.82-1.945-.82-2.597 0-.52.135-1.428.343-2.791.477-3.246 2.933-14.537 3.137-15.314.135-.583.205-.975.547-.975l9.064.066c.477 0 .612.195.681 1.103.613 8.697.82 11.097.886 11.94.135 2.597.55 6.488-.336 8.243-.069.128-.069.194.069.194.955-.066 2.592-.129 4.979-.129 2.317 0 3.341.066 4.978.195.135 0 .135-.066.069-.195-2.045-2.854-2.73-4.282-3.342-7.268l-3.954-24.92c-1.159-7.268-1.363-9.02-1.363-8.825 0-1.491.408-2.143 1.432-2.791l.886-.583c.405-.254.266-.385.335-.84Zm-5.732 20.509h-8.109c-.135 0-.204 0-.204-.194 0-.389 1.501-6.943 1.775-8.306.955-4.543 1.705-6.748 1.909-7.268.274-.909 1.228-1.037 2.522-1.037 1.159 0 1.291.066 1.36.388.069.52 1.228 12.072 1.501 15.314.132 1.297.132 1.103-.754 1.103ZM33.022 112.496c.945-2.004 2.792-8.904 3.041-11.594.318-3.37.097-20.337-.093-24.78-.153-3.602-1.239-6.874-3.235-9.725-.041-.063-.138-.214-.114-.313 1.442.408 4.715.649 7.265.649.93 0 2.228-.033 3.12-.185-1.041 2.305-1.813 8.151-1.626 11.14.073 1.149.11 3.832.156 6.94.076 5.306.17 11.91.488 14.928.522 4.928 2.605 10.965 3.566 12.611l.031.056a1.54 1.54 0 0 1-.224-.062c-.353-.129-1.014-.28-3.003-.28-3.086-.007-7.787.362-9.372.615ZM76.235 111.785c.626-1.461 1.103-3.144.754-4.207-.488-1.392-3.978-10.132-8.375-17.434.28.399-9.79-15.968-11.257-18.227l-.893-1.698.235 11.097.627 14.204c.207 4.316 2.23 13.21 3.068 14.935l.557 1.129c-2.86-.266-3.556-.332-5.092-.332-.768 0-3.556.197-5.373.464.907-2.986 2.232-8.631 2.232-11.485v-.863c0-25.755-.419-30.802-1.464-32.33-.28-.332-.487-.664-.698-.927 0 0-.139-.066-.07-.066h5.304c4.604 0 7.534 0 8.86-.066-.42.596-.907 1.79-.907 2.39 0 .266 1.325 4.714 6.486 13.875l.488.862c4.605 8.164 10.672 16.73 10.745 16.796l2.024 2.722c.069.066.138.132.138 0v-3.585c0-.796 0-20.91-.28-24.827-.138-3.52-.976-6.242-2.442-7.966-.07-.132 0-.198.069-.198 1.325.132 3.138.332 4.885.267 1.463-.066 2.791-.198 3.28-.333.349-.066.068.333-.07.53l-.837 1.26c-.557.863-1.256 2.588-1.325 6.64-.07 3.585.207 26.22.487 30.138.35 3.983.488 4.911 1.675 6.903.28.464-.557.266-.976.266-4.535-.266-7.953-.065-9.627 0l-2.228.066c-.07 0-.07.066 0 0ZM104.415 111.973c1.332-4.375 1.931-9.941 1.931-10.87 0-6.386.771-27.293.778-27.523 0 0 0-3.443-.896-3.443-1.055 0-4.286.144-6.362.605-3.151.705-5.227 2.808-6.455 4.194-.114-.648-.232-1.399-.332-2.038-.474-3.005-.872-5.329-1.43-6.758 2.326.316 9.179 1.143 16.893 1.143.678 0 1.509.013 2.432.023 1.152.016 2.443.033 3.747.033 4.137 0 6.59-.178 7.953-.576 1.436-.419 3.812-1.153 5.404-1.86-.46 1.787-1.204 8.025-1.249 9.984l-.152-.201c-1.315-1.755-3.297-4.405-8.552-4.405-2.301 0-4.971.007-5.636.017 0 0-.539 1.382-.539 2.768 0 .948.211 6.462.453 12.849.253 6.666.543 14.22.543 15.517 0 1.011.865 7.536 1.927 10.544-.329-.003-.647-.023-.91-.039a11.384 11.384 0 0 0-.543-.023c-.315 0-7.891.062-9.008.069l.003-.01ZM276.975 112.993c1.363-4.48 1.975-10.178 1.975-11.133 0-6.537.471-29.643.474-29.877l.028-1.438-1.308.052c-.148.007-3.642.149-5.77.623-2.684.599-4.715 2.008-6.151 3.407-.083.079-.221.04-.238-.07-.104-.56-.339-1.75-.339-1.75-.474-2.361-1-4.995-1.723-6.716a10.695 10.695 0 0 0-.256-.54c-.052-.102.052-.207.162-.171 1.166.398 5.518 1.768 10.811 1.847.481.006 1.138.01 1.92.01 5.217 0 15.578-.145 17.968-.27 1.941-.106 4.058-.76 6.442-2.002.083-.043.183.023.162.112-.401 1.807-1.342 4-1.148 8.822.007.148-.201.208-.305.099-1.563-1.682-4.026-3.387-8.596-3.595-2.339-.105-5.712.082-6.269.145 0 0 .889 29.446.889 31.651 0 1.034.886 7.716 1.972 10.798a18.053 18.053 0 0 1-.93-.04 11.947 11.947 0 0 0-.554-.023c-.322 0-8.081.063-9.223.069l.007-.01ZM144.437 112.852c-3.525 0-8.555-.981-12.488-5.652-6.289-7.466-6.286-13.978-6.286-18.73 0-6.134 2.892-12.418 5.369-15.98 2.902-4.177 7.372-6.587 12.928-6.969h.028c4.386 0 6.87 1.172 8.596 1.172.837 0 1.55-.088 2.176-.266 1.429-.412 2.508-1.097 3.301-1.594.214-.135.588.056.518.33-.159.648-.373 1.389-.532 1.939-.27.941-.533 1.863-.671 2.567-.17.873-.218 2.002-.267 3.091-.021.49-.052 1.162-.1 1.728-.014.175-.443.208-.734-.039-.588-.497-1.428-1.32-2.518-2.633-1.816-2.186-4.715-3.493-7.749-3.493-1.259 0-2.522.22-3.743.652-8.742 3.104-9.773 16.232-9.808 16.788l-.107 1.481 1.349-.059c.069-.003 6.961-.296 11.575-.296 3.789 0 8.244-2.248 10.905-3.595.207-.102.397-.2.577-.29 0 .007 0 .748.004.935.014 2.048.072 5.277.318 7.197.021.17.218.826-.761.082-1.079-.827-2.909-1.445-4.636-1.66-.757-.092-2.3-.138-4.718-.138-2.65 0-5.795.053-8.023.093-1.214.02-2.152.036-2.587.036-1.969 0-3.197.313-3.249.326l-.83.217-.09.935c-.021.214-.477 5.283 1.429 9.78 1.823 4.309 4.182 8.177 12.98 8.177 5.974 0 10.464-4.599 12.758-7.064-.049.747-.09 1.731-.09 3.051 0 2.561.377 4.908.63 6.462l.083.524c-.471-.211-1.18-.55-2.211-1.12-.484-.266-1.069-.395-1.785-.395-1.802 0-4.189.84-5.933 1.455-.647.227-1.187.422-1.529.504-.564.138-2.09.451-4.079.451ZM204.882 90.197l-.771.201s-.82 6.054 1.311 10.685c1.795 3.895 3.985 7.773 12.634 7.773 5.756 0 10.229-4.333 12.603-6.792.131-.138.37-.042.363.142a117.09 117.09 0 0 0-.056 3.078c0 2.363.256 4.444.447 5.961.027.205.052.412.076.616.024.201-.17.369-.377.316a9.585 9.585 0 0 1-2.342-.902c-.523-.286-1.156-.425-1.938-.425-1.726 0-3.871.695-5.441 1.202-.53.171-.976.316-1.287.392-.557.135-2.062.444-4.027.444-3.484 0-8.451-.968-12.336-5.583-6.376-7.565-6.376-14.336-6.376-18.816 0-6.034 2.691-12.045 4.992-15.36 3.639-5.238 7.981-6.83 12.312-7.22 5.359-.48 8.566.998 9.763 1.196 1.587.263 3.57-.35 4.327-.932.962-.744.308 1.221.128 1.873-.263.925-.515 1.83-.65 2.528-.194.995-.163 2.226-.131 3.414.006.234.013.5.017.77.003.264-.163.728-.72.188-.564-.543-1.408-1.33-2.449-2.58a9.593 9.593 0 0 0-7.407-3.464c-1.2 0-2.418.217-3.622.642-8.641 3.068-9.548 15.205-9.582 15.722l-.087 1.32 1.204.079c.066.007 6.763.435 11.378.435 3.767 0 8.227-2.166 10.887-3.457l.567-.276c-.093.342-.166.632-.166.918 0 .056.066 5.237.495 7.627-.242-.112-.526-.253-.82-.398-1.211-.602-2.871-1.429-4.573-1.636-.748-.092-2.273-.135-4.66-.135-2.615 0-5.722.053-7.926.092"/><path d="M194.087 112.704c-7.002.52-8.303-4.932-9.282-7.878a30.418 30.418 0 0 0-.349-1.014c-.322-.865-.644-1.883-.979-2.956-.765-2.43-1.63-5.181-2.865-7.37-1.505-2.67-4.521-3.068-6.189-3.068-.688 0-1.145.066-1.145.066l-1.079.158.028 1.195s.159 5.467.311 8.588c.145 2.973.547 7.308 2.259 11.449-2.581-.02-8.078-.056-10.399-.066.809-1.81 2.152-7.278 2.152-11.07 0-1.054-.021-4.629-.045-8.892-.035-6.274-.08-14.033-.08-17.4 0-4.445-.712-5.992-1.287-7.233-.083-.18-.166-.358-.242-.54h.014c.353.04.733.08 1.103.08.817-.03 10.915-.103 13.264-.103 4.58 0 12.26 1.36 12.26 10.465 0 9.412-5.525 10.603-9.562 11.476-.408.089-.792.17-1.145.257l-2.615.641s7.635-.921 11.167 9.952c.384 1.178.792 2.449 1.321 3.818 2.114 5.494 6.158 6.311 8.383 6.311.961 0 1.774-.142 2.335-.28-.81.909-3.051 3.098-7.334 3.414Zm-20.373-44.069c-1.851 0-1.947 1.43-1.947 1.715 0 .185.152 16.582.152 16.582s2.311-.066 4.611-.36c7.189-.914 8.67-5.523 8.863-8.815.229-3.89-.581-7.551-3.283-8.493-3.079-1.073-8.396-.629-8.396-.629ZM251.002 112.763c-3.82 0-7.988-2.976-12.281-3.009-1.405-.01-2.682.412-3.744.932-.217.105-.446-.112-.339-.32 1.26-2.439 2.581-6.863 2.951-8.644.049-.24.364-.323.537-.142 2.293 2.417 7.188 6.722 11.623 7.42.81.129 1.543.185 2.204.185 4.411 0 5.995-2.588 6.542-4.757.958-3.769-2.422-7.331-12.911-13.622-10.686-6.406-10.067-12.647-8.424-18.013 2.031-6.633 8.282-8.944 18.944-6.465 2.539.494 4.023-.35 4.906-.606.757-.22.75.224.716.435-.408 2.406-1.069 6.442-1.387 9.214-.018.151-.232.184-.301.046-1.419-2.825-4.629-7.374-11.863-7.374-3.76 0-6.396 1.873-7.23 5.142-.944 3.7.685 7.657 3.636 9.632 1.723 1.155 4.02 2.43 6.452 3.779 4.082 2.261 8.489 5.02 10.451 6.84 4.801 4.45 1.965 13.039.096 14.978-4.137 4.296-7.652 4.349-10.578 4.349Z"/></g><defs><clipPath id="a"><path fill="#fff" d="M0 0h326v113H0z"/></clipPath></defs></svg>