<svg xmlns="http://www.w3.org/2000/svg" version="1.1" id="Layer_1" x="0" y="0" viewBox="0 0 100% 100%" style="enable-background:new 0 0 100 100" xml:space="preserve">
  <style>
    .st1{fill:none;stroke:#231f20;stroke-miterlimit:10}
  </style>
  <pattern width="100" height="100" patternUnits="userSpaceOnUse" id="legit-pattern" viewBox="5 -105.4 100 100" style="overflow:visible">
    <rect x="5" y="-105.4" width="100%" height="100%" style="fill:none"/>
    <path class="st1" d="m17.7-.6 8-8M76.9-.4l7.3-7.3M108.9-96.4l-8.5 8.6M110.9-44.8l-7.7 7.7M101.7-63l5.3-5.3M107-11.8l-6.3 6.4"/>
    <g>
      <path class="st1" d="M8.9-96.4.4-87.8M26.3-95.5l3.2-3.3M18.9-73.9l3.5-3.5M36.1-68.9l7.9-7.9M50.5-94.9l6.1-6.2M36.1-91l4.6-4.5M18.3-34l-5.1 5.1M10.9-44.8l-7.7 7.7M56.2-41l5.6-5.6M32.5-33.2l7.2-7.1M18.9-47.1l3.9-4M1.7-63 7-68.3M19.4-58.5l4.2-4.1M51.1-55.9l9.4-9.3M36.1-55.4l4.9-4.9M52.7-72.8l6.2-6.1M11.7-86.4l4.3-4.3M17.7-100.6l8-8M76.2-23.2l-2.7 2.6M92-33.6l-4.3 4.3M70.8-43.7l7.4-7.4M49.6-22.1l6.9-6.9M36.1-25.5l-5.2 5.2M7-11.8.7-5.4M87.4-14.1l4.8-5.5M67.9-28.9l7.9-7.8M95.2-72.9l5.4-5.4M69.6-59.1l2.9-2.9M58.1-85.6l2.9-2.9M36.1-45.1l6.3-6.3M53.1-15.8l-4.9 4.9M70.7-10.4 62-1.7M20.9-17.8l-3.5 4.4M77.6-72.6l5.9-5.9M31.1-78.7l5.5-5.5M67.3-78.6l4.7-4.7M80.4-88.5l5.1-5.2M76.9-100.4l7.3-7.3M95.7-93.2l4.4-4.4M88.8-48.1l2-2M82.9-60.6l4.5-4.4M101.1-49.1l6.9-7.8M101.1-18.6l1.9-1.9"/>
    </g>
    <g>
      <path class="st1" d="M1.1-49.1 8-56.9"/>
    </g>
    <g>
      <path class="st1" d="m107-111.8-6.3 6.4"/>
    </g>
    <g>
      <path class="st1" d="m7-111.8-6.3 6.4M70.7-110.4l-8.7 8.7"/>
    </g>
  </pattern>
  <rect width="100%" height="100%" style="fill:url(#legit-pattern)"/>
</svg>
